# xmcd
#
# Track frame offsets:
#       150
#       4362
#       18432
#       28412
#       33923
#       52995
#       69122
#       81375
#       86841
#       100270
#       103116
#       115698
#       124889
#       130396
#       143753
#       154838
#       160563
#       165718
#       191601
#
# Disc length: 2835 seconds
#
# Revision: 0
# Processed by: cddbd v1.5.2PL0 Copyright (c) Steve Scherf et al.
# Submitted via: WaveLab 4.01
#
DISCID=fa0b1113
DTITLE=Bayerisches KM - Hörbeispiele Musterabitur 2011
DYEAR=2008
DGENRE=
TTITLE0=Titel 01 Schubert Marche militaire Ausschnitt 1
TTITLE1=Titel 02 Schubert Marche militaire Ausschnitt 2
TTITLE2=Titel 03 Strawinsky - Circus Polka - Ausschnitt
TTITLE3=Titel 04 Kagel - Marsch Nr. 1
TTITLE4=Titel 05 Gesualdo - Merce grido piangendo
TTITLE5=Titel 06 Wise Guys - Nur für Dich
TTITLE6=Titel 07 Bach - Arie - Ich folge dir gleichfalls
TTITLE7=Titel 08 Fürnberg - Lied der Partei
TTITLE8=Titel 09 Heymann - Irgendwo auf der Welt
TTITLE9=Titel 10 Heymann - Irgendwo auf der Welt - Refrain
TTITLE10=Titel 11 Schwitters - Ursonate - Ausschnitt
TTITLE11=Titel 12 Rosetti - Sinfonie in g  - Ausschnitt
TTITLE12=Titel 13 Händel - Concerto grosso in a op. 6 - 4
TTITLE13=Titel 14 Prokofieff - Symphonie classique - Ausschnitt
TTITLE14=Titel 15 Hindemith - Alte Karbonaden
TTITLE15=Titel 16 Teike - Alte Kameraden
TTITLE16=Titel 17 Schönberg - Marsch
TTITLE17=Titel 18 Englisch
TTITLE18=Titel 19 Italienisch
EXTD=
EXTT0=
EXTT1=
EXTT2=
EXTT3=
EXTT4=
EXTT5=
EXTT6=
EXTT7=
EXTT8=
EXTT9=
EXTT10=
EXTT11=
EXTT12=
EXTT13=
EXTT14=
EXTT15=
EXTT16=
EXTT17=
EXTT18=
PLAYORDER=
